<svg width="543" height="543" viewBox="0 0 543 543" fill="none" xmlns="http://www.w3.org/2000/svg">
<rect x="2" y="2" width="539" height="539" rx="28" fill="white"/>
<rect x="2" y="2" width="539" height="539" rx="28" stroke="black" stroke-width="4"/>
<g filter="url(#filter0_i_839_4843)">
<path fill-rule="evenodd" clip-rule="evenodd" d="M190 37.5203C150.788 37.5203 119 69.308 119 108.52V435.48C119 474.692 150.788 506.48 190 506.48H353C392.212 506.48 424 474.692 424 435.48V108.52C424 69.308 392.212 37.5203 353 37.5203H190ZM286.485 159.422C286.485 160.926 287.238 161.678 288.742 161.678C290.247 161.678 290.999 160.926 290.999 159.422V105.713C290.999 102.705 291.901 100.448 293.707 98.9435C295.663 97.439 297.844 96.6868 300.251 96.6868C302.508 96.6868 304.539 97.439 306.344 98.9435C308.149 100.448 309.052 102.705 309.052 105.713V140.24C309.052 141.745 309.804 142.497 311.309 142.497C312.813 142.497 313.565 141.745 313.565 140.24V105.713C313.565 101.2 312.136 97.8151 309.278 95.5585C306.57 93.3019 303.561 92.1735 300.251 92.1735C296.941 92.1735 293.782 93.3019 290.773 95.5585C287.915 97.8151 286.485 101.2 286.485 105.713V159.422ZM333.875 148.815C334.477 149.718 335.229 150.169 336.132 150.169C336.733 150.169 337.26 149.944 337.711 149.492C339.517 147.687 341.548 145.731 343.804 143.625C346.061 141.519 348.017 139.262 349.672 136.855C351.326 134.448 352.154 131.966 352.154 129.408C352.154 127.904 351.853 126.399 351.251 124.895C350.649 123.39 349.521 121.886 347.866 120.382C346.362 118.727 344.857 117.598 343.353 116.997C341.849 116.395 340.419 116.094 339.065 116.094C335.304 116.094 331.694 117.749 328.233 121.059C324.773 124.368 321.764 127.302 319.207 129.86C318.455 130.612 318.304 131.439 318.756 132.342C319.357 133.245 320.034 133.696 320.787 133.696C321.388 133.696 321.915 133.47 322.366 133.019C323.72 131.665 325.225 130.085 326.879 128.28C328.534 126.324 330.34 124.594 332.295 123.09C334.402 121.585 336.508 120.833 338.614 120.833C340.871 120.833 342.902 121.736 344.707 123.541C346.512 125.346 347.415 127.302 347.415 129.408C347.415 131.665 346.588 133.846 344.933 135.952C343.278 138.059 341.397 140.014 339.291 141.82C337.335 143.625 335.756 145.13 334.552 146.333C333.649 147.085 333.424 147.913 333.875 148.815ZM254.215 140.691L263.016 149.492C263.769 150.245 264.596 150.395 265.499 149.944C266.401 149.342 266.853 148.665 266.853 147.913C266.853 147.311 266.627 146.784 266.176 146.333C264.972 144.979 263.317 143.475 261.211 141.82C259.255 140.165 257.525 138.36 256.021 136.404C254.516 134.298 253.764 132.191 253.764 130.085C253.764 127.979 254.742 125.948 256.698 123.992C258.503 122.187 260.534 121.284 262.791 121.284C265.047 121.284 267.229 122.112 269.335 123.767C271.441 125.421 273.322 127.302 274.977 129.408C276.782 131.364 278.286 132.944 279.49 134.147C280.242 135.05 281.07 135.275 281.972 134.824C282.875 134.222 283.326 133.47 283.326 132.568C283.326 131.966 283.101 131.439 282.649 130.988C280.994 129.183 279.039 127.152 276.782 124.895C274.676 122.638 272.419 120.683 270.012 119.028C267.755 117.373 265.273 116.545 262.565 116.545C261.061 116.545 259.556 116.846 258.052 117.448C256.698 118.05 255.193 119.178 253.538 120.833C252.034 122.337 250.906 123.842 250.153 125.346C249.552 126.851 249.251 128.355 249.251 129.86C249.251 133.621 250.906 137.231 254.215 140.691ZM233.454 176.121C235.861 178.979 239.246 180.408 243.609 180.408H291.45C292.955 180.408 293.707 179.656 293.707 178.152C293.707 176.647 292.955 175.895 291.45 175.895H243.609C240.751 175.895 238.494 174.992 236.839 173.187C235.335 171.382 234.583 169.276 234.583 166.869C234.583 164.461 235.335 162.355 236.839 160.55C238.494 158.745 240.751 157.842 243.609 157.842H272.269C273.773 157.842 274.525 157.09 274.525 155.585C274.525 154.081 273.773 153.329 272.269 153.329H243.835C239.322 153.329 235.861 154.758 233.454 157.616C231.198 160.475 230.069 163.559 230.069 166.869C230.069 170.178 231.198 173.262 233.454 176.121ZM326.202 178.152C326.202 179.656 326.955 180.408 328.459 180.408H356.893C361.406 180.408 364.791 178.979 367.048 176.121C369.304 173.262 370.433 170.178 370.433 166.869C370.433 163.559 369.304 160.475 367.048 157.616C364.791 154.758 361.406 153.329 356.893 153.329H309.278C307.773 153.329 307.021 154.081 307.021 155.585C307.021 157.09 307.773 157.842 309.278 157.842H356.893C359.902 157.842 362.158 158.82 363.663 160.776C365.167 162.581 365.919 164.612 365.919 166.869C365.919 169.276 365.167 171.382 363.663 173.187C362.158 174.992 359.902 175.895 356.893 175.895H328.459C326.955 175.895 326.202 176.647 326.202 178.152ZM291.224 238.179C294.083 240.435 297.167 241.564 300.477 241.564C303.937 241.564 307.021 240.435 309.729 238.179C312.587 235.922 314.017 232.537 314.017 228.024V174.316C314.017 172.811 313.264 172.059 311.76 172.059C310.255 172.059 309.503 172.811 309.503 174.316V228.024C309.503 231.033 308.601 233.289 306.795 234.794C304.99 236.298 302.884 237.05 300.477 237.05C298.22 237.05 296.114 236.298 294.158 234.794C292.353 233.289 291.45 231.033 291.45 228.024V193.497C291.45 191.993 290.698 191.24 289.193 191.24C287.689 191.24 286.937 191.993 286.937 193.497V228.024C286.937 232.537 288.366 235.922 291.224 238.179ZM257.375 216.74C258.879 217.342 260.384 217.643 261.888 217.643C265.8 217.643 269.41 216.063 272.72 212.904L281.521 204.103C282.123 203.501 282.424 202.975 282.424 202.524C282.424 201.019 281.596 200.267 279.941 200.267C279.189 200.267 278.587 200.493 278.136 200.944C276.932 202.147 275.428 203.727 273.623 205.683C271.968 207.639 270.162 209.369 268.207 210.873C266.251 212.378 264.145 213.13 261.888 213.13C259.932 213.13 257.977 212.152 256.021 210.196C254.215 208.391 253.313 206.435 253.313 204.329C253.313 202.072 254.065 199.891 255.569 197.785C257.224 195.678 259.105 193.723 261.211 191.917C263.317 190.112 264.972 188.608 266.176 187.404C266.928 186.652 267.003 185.824 266.401 184.922C265.95 184.019 265.348 183.568 264.596 183.568C263.994 183.568 263.468 183.793 263.016 184.245C261.361 185.9 259.33 187.78 256.923 189.886C254.667 191.993 252.711 194.249 251.056 196.656C249.401 199.063 248.574 201.621 248.574 204.329C248.574 205.833 248.875 207.338 249.476 208.842C250.229 210.196 251.357 211.701 252.861 213.355C254.516 214.86 256.021 215.988 257.375 216.74ZM330.716 214.709C333.123 216.364 335.605 217.192 338.163 217.192C339.667 217.192 341.172 216.891 342.676 216.289C344.18 215.537 345.685 214.409 347.189 212.904C350.048 210.046 351.477 207.112 351.477 204.103C351.477 200.192 349.822 196.581 346.512 193.271C343.203 189.811 340.269 186.802 337.711 184.245C336.959 183.493 336.132 183.417 335.229 184.019C334.326 184.47 333.875 185.147 333.875 186.05C333.875 186.652 334.101 187.178 334.552 187.63C335.906 188.833 337.486 190.338 339.291 192.143C341.247 193.798 342.977 195.678 344.481 197.785C345.986 199.74 346.738 201.771 346.738 203.878C346.738 205.984 345.835 207.94 344.03 209.745C342.225 211.55 340.194 212.453 337.937 212.453C335.831 212.453 333.725 211.701 331.618 210.196C329.512 208.541 327.556 206.661 325.751 204.555C324.096 202.448 322.592 200.794 321.238 199.59C320.636 198.988 320.034 198.687 319.433 198.687C318.079 198.687 317.402 199.44 317.402 200.944C317.402 201.696 317.627 202.298 318.079 202.749C319.884 204.404 321.84 206.435 323.946 208.842C326.052 211.099 328.309 213.055 330.716 214.709Z" fill="black"/>
</g>
<defs>
<filter id="filter0_i_839_4843" x="119" y="37.5203" width="306" height="471.959" filterUnits="userSpaceOnUse" color-interpolation-filters="sRGB">
<feFlood flood-opacity="0" result="BackgroundImageFix"/>
<feBlend mode="normal" in="SourceGraphic" in2="BackgroundImageFix" result="shape"/>
<feColorMatrix in="SourceAlpha" type="matrix" values="0 0 0 0 0 0 0 0 0 0 0 0 0 0 0 0 0 0 127 0" result="hardAlpha"/>
<feOffset dx="1" dy="3"/>
<feGaussianBlur stdDeviation="2"/>
<feComposite in2="hardAlpha" operator="arithmetic" k2="-1" k3="1"/>
<feColorMatrix type="matrix" values="0 0 0 0 0.873649 0 0 0 0 0.873649 0 0 0 0 0.873649 0 0 0 0.4 0"/>
<feBlend mode="normal" in2="shape" result="effect1_innerShadow_839_4843"/>
</filter>
</defs>
</svg>
